<svg id="Layer_1" enable-background="new 0 0 512 512" height="512" viewBox="0 0 512 512" width="512" xmlns="http://www.w3.org/2000/svg"><g><g><path d="m368 464h-16c-70.692 0-128-57.307-128-128 0-70.692 57.307-128 128-128h16c70.692 0 128 57.307 128 128 0 70.693-57.307 128-128 128z" fill="#d7322d"/></g><g><circle cx="352" cy="336" fill="#f04b37" r="128"/></g><g><path d="m256 304h-16c-70.692 0-128-57.307-128-128 0-70.692 57.307-128 128-128h16c70.692 0 128 57.307 128 128 0 70.693-57.307 128-128 128z" fill="#d7322d"/></g><g><circle cx="240" cy="176" fill="#f04b37" r="128"/></g><g><path d="m160 464h-16c-70.692 0-128-57.307-128-128 0-70.692 57.307-128 128-128h16c70.692 0 128 57.307 128 128 0 70.693-57.307 128-128 128z" fill="#d7322d"/></g><g><circle cx="144" cy="336" fill="#f04b37" r="128"/></g><g><circle cx="234.667" cy="357.333" fill="#ff8773" r="16"/></g><g><circle cx="341.333" cy="413.333" fill="#ff8773" r="16"/></g><g><circle cx="56" cy="333.333" fill="#ff8773" r="16"/></g><g><circle cx="288" cy="184" fill="#ff8773" r="16"/></g><g><circle cx="214.667" cy="313.333" fill="#ff8773" r="4"/></g><g><circle cx="338.667" cy="318.667" fill="#ff8773" r="4"/></g><g><circle cx="221.333" cy="194.667" fill="#ff8773" r="4"/></g><g><circle cx="110.667" cy="404" fill="#ff8773" r="4"/></g><g><circle cx="132" cy="332" fill="#ff8773" r="9.333"/></g><g><circle cx="453.333" cy="368" fill="#ff8773" r="9.333"/></g><g><circle cx="398.667" cy="292" fill="#ff8773" r="9.333"/></g><g><circle cx="208" cy="109.333" fill="#ff8773" r="9.333"/></g><g><circle cx="164" cy="254.667" fill="#ff8773" r="9.333"/></g></g></svg>